<svg width="33px" height="32px" viewBox="0 0 33 32" version="1.1" xmlns="http://www.w3.org/2000/svg" xmlns:xlink="http://www.w3.org/1999/xlink">
	<g id="Page-1-github" stroke="none" stroke-width="1" fill="none" fill-rule="evenodd">
		<g id="GitHub-Mark" transform="translate(-132.000000, -53.000000)" fill="#FFFFFF">
			<path d="M148.288,53.1125666 C139.294,53.1125666 132,60.4055666 132,69.4025666 C132,76.5995666 136.667,82.7045666 143.14,84.8585666 C143.955,85.0085666 144.252,84.5055666 144.252,84.0735666 C144.252,83.6875666 144.238,82.6625666 144.23,81.3035666 C139.699,82.2875666 138.743,79.1195666 138.743,79.1195666 C138.002,77.2375666 136.934,76.7365666 136.934,76.7365666 C135.455,75.7265666 137.046,75.7465666 137.046,75.7465666 C138.681,75.8615666 139.541,77.4255666 139.541,77.4255666 C140.994,79.9145666 143.354,79.1955666 144.282,78.7785666 C144.43,77.7265666 144.851,77.0085666 145.316,76.6015666 C141.699,76.1905666 137.896,74.7925666 137.896,68.5505666 C137.896,66.7725666 138.531,65.3175666 139.573,64.1795666 C139.405,63.7675666 138.846,62.1105666 139.733,59.8685666 C139.733,59.8685666 141.1,59.4305666 144.212,61.5385666 C145.511,61.1765666 146.905,60.9965666 148.29,60.9895666 C149.674,60.9965666 151.067,61.1765666 152.368,61.5385666 C155.478,59.4305666 156.843,59.8685666 156.843,59.8685666 C157.732,62.1105666 157.173,63.7675666 157.006,64.1795666 C158.05,65.3175666 158.68,66.7725666 158.68,68.5505666 C158.68,74.8085666 154.871,76.1855666 151.243,76.5885666 C151.827,77.0915666 152.348,78.0855666 152.348,79.6055666 C152.348,81.7825666 152.328,83.5395666 152.328,84.0735666 C152.328,84.5095666 152.622,85.0165666 153.448,84.8575666 C159.916,82.6985666 164.579,76.5975666 164.579,69.4025666 C164.579,60.4055666 157.285,53.1125666 148.288,53.1125666" id="Fill-3"></path>
		</g>
	</g>
</svg>
