<svg width="33px" height="33px" viewBox="0 0 33 33" version="1.1" xmlns="http://www.w3.org/2000/svg" xmlns:xlink="http://www.w3.org/1999/xlink">
	<g id="Page-1-linkedin" stroke="none" stroke-width="1" fill="none" fill-rule="evenodd">
		<g id="linkedin-icon">
			<g id="Group-5-linkedin">
				<path d="M28.1219304,28.1196667 L23.2291937,28.1196667 L23.2291937,20.4606111 C23.2291937,18.634 23.1968036,16.2848889 20.685655,16.2848889 C18.1384496,16.2848889 17.7497685,18.2758889 17.7497685,20.3298333 L17.7497685,28.1196667 L12.8570317,28.1196667 L12.8570317,12.3713333 L17.5517612,12.3713333 L17.5517612,14.5248889 L17.6189859,14.5248889 C18.2722879,13.2861667 19.8691803,11.9808333 22.2501574,11.9808333 C27.2070632,11.9808333 28.1219304,15.2417222 28.1219304,19.4822222 L28.1219304,28.1196667 Z M7.33910515,10.2196111 C5.77032483,10.2196111 4.5022223,8.94788889 4.5022223,7.38222222 C4.5022223,5.81472222 5.77032483,4.543 7.33910515,4.543 C8.90360754,4.543 10.1753769,5.81472222 10.1753769,7.38222222 C10.1753769,8.94788889 8.90360754,10.2196111 7.33910515,10.2196111 Z M4.89090337,28.1196667 L9.78730694,28.1196667 L9.78730694,12.3713333 L4.89090337,12.3713333 L4.89090337,28.1196667 Z M30.5591318,0 L2.43536798,0 C1.092096,0 0,1.06577778 0,2.37966667 L0,30.6191111 C0,31.933 1.092096,33 2.43536798,33 L30.5591318,33 C31.9054595,33 33,31.933 33,30.6191111 L33,2.37966667 C33,1.06577778 31.9054595,0 30.5591318,0 L30.5591318,0 Z" id="Fill-4-linkedin"></path>
			</g>
		</g>
	</g>
</svg>
